<!-- This Source Code Form is subject to the terms of the Mozilla Public
   - License, v. 2.0. If a copy of the MPL was not distributed with this
   - file, You can obtain one at http://mozilla.org/MPL/2.0/. -->
<svg xmlns="http://www.w3.org/2000/svg" width="16" height="16" viewBox="0 0 16 16">
  <path fill="rgba(12, 12, 13, .8)" fill-rule="evenodd" d="M8,1c3.9,0,7,3.1,7,7s-3.1,7-7,7s-7-3.1-7-7S4.1,1,8,1z M8,12c-0.6,0-1-0.4-1-1s0.4-1,1-1c0.6,0,1,0.4,1,1S8.6,12,8,12z
	 M8,9C7.4,9,7,8.6,7,8V5c0-0.6,0.4-1,1-1c0.6,0,1,0.4,1,1v3C9,8.6,8.6,9,8,9z"/>
</svg>
